<?xml version="1.0" encoding="UTF-8"?>
<svg version="1.1" xmlns="http://www.w3.org/2000/svg" width="500" height="500">
<path d="M0 0 C1.55728881 0.81822191 3.12277419 1.62080304 4.68945312 2.42089844 C12.76898706 6.65189698 20.26857996 11.75845572 27.76757812 16.92871094 C28.43080078 17.37456543 29.09402344 17.82041992 29.77734375 18.27978516 C31.47686289 19.44510871 33.12715643 20.68156983 34.76757812 21.92871094 C34.76757812 22.58871094 34.76757812 23.24871094 34.76757812 23.92871094 C35.35023438 24.19683594 35.93289063 24.46496094 36.53320312 24.74121094 C38.79544413 25.94352084 40.5733413 27.26697006 42.51757812 28.92871094 C43.13117188 29.44433594 43.74476563 29.95996094 44.37695312 30.49121094 C45.76757812 31.92871094 45.76757812 31.92871094 45.76757812 33.92871094 C46.42757813 33.92871094 47.08757812 33.92871094 47.76757812 33.92871094 C47.76757812 34.58871094 47.76757812 35.24871094 47.76757812 35.92871094 C48.42757813 35.92871094 49.08757812 35.92871094 49.76757812 35.92871094 C49.76757812 36.58871094 49.76757812 37.24871094 49.76757812 37.92871094 C50.61835937 38.280625 50.61835937 38.280625 51.48632812 38.63964844 C71.87580636 50.16110018 85.84110227 82.54466366 94.76757812 102.92871094 C95.10426514 103.69554199 95.44095215 104.46237305 95.7878418 105.25244141 C113.64702707 147.74157838 114.71818505 203.91848566 97.97583008 246.96435547 C97.26129982 248.628561 96.51609268 250.27951128 95.76757812 251.92871094 C95.19960587 253.38492173 94.63663146 254.8430978 94.08007812 256.30371094 C84.58819066 280.08798068 84.58819066 280.08798068 77.76757812 288.92871094 C77.10757812 288.92871094 76.44757813 288.92871094 75.76757812 288.92871094 C75.76757812 289.91871094 75.76757812 290.90871094 75.76757812 291.92871094 C75.10757812 291.92871094 74.44757813 291.92871094 73.76757812 291.92871094 C73.36345703 293.04246094 73.36345703 293.04246094 72.95117188 294.17871094 C71.00934893 298.69040518 67.86866849 302.15395462 64.76757812 305.92871094 C63.93613281 306.94707031 63.1046875 307.96542969 62.24804688 309.01464844 C56.18848379 316.35228042 49.92422292 323.63035864 42.76757812 329.92871094 C42.10757812 329.92871094 41.44757813 329.92871094 40.76757812 329.92871094 C40.76757812 330.58871094 40.76757812 331.24871094 40.76757812 331.92871094 C37.30603966 334.92871094 37.30603966 334.92871094 34.76757812 334.92871094 C34.76757812 335.58871094 34.76757812 336.24871094 34.76757812 336.92871094 C33.1628418 338.31738281 33.1628418 338.31738281 30.93554688 339.89746094 C30.13697266 340.46851563 29.33839844 341.03957031 28.515625 341.62792969 C27.67064453 342.2221875 26.82566406 342.81644531 25.95507812 343.42871094 C25.12169922 344.02296875 24.28832031 344.61722656 23.4296875 345.22949219 C14.01599975 351.92871094 14.01599975 351.92871094 10.76757812 351.92871094 C10.76757812 352.58871094 10.76757812 353.24871094 10.76757812 353.92871094 C9.65640625 354.44820313 8.54523438 354.96769531 7.40039062 355.50292969 C5.89769219 356.20715566 4.39509492 356.91159751 2.89257812 357.61621094 C2.10826416 357.98343262 1.3239502 358.3506543 0.51586914 358.72900391 C-3.46290147 360.59889858 -7.40176964 362.50997353 -11.29492188 364.55371094 C-30.37283811 374.04505362 -52.086247 378.9994983 -73.23242188 380.92871094 C-74.38226563 381.03828125 -75.53210938 381.14785156 -76.71679688 381.26074219 C-111.05278837 384.12207481 -146.58905102 378.75743342 -178.23242188 364.92871094 C-178.23242188 364.26871094 -178.23242188 363.60871094 -178.23242188 362.92871094 C-178.90660156 362.83332031 -179.58078125 362.73792969 -180.27539062 362.63964844 C-197.22221706 358.56524631 -213.37015641 345.06530584 -226.23242188 333.92871094 C-227.04839844 333.22359375 -227.864375 332.51847656 -228.70507812 331.79199219 C-243.88326787 318.39381201 -257.78832446 303.38711576 -268.23242188 285.92871094 C-268.23242188 284.93871094 -268.23242188 283.94871094 -268.23242188 282.92871094 C-268.89242187 282.92871094 -269.55242187 282.92871094 -270.23242188 282.92871094 C-270.75191406 281.81753906 -271.27140625 280.70636719 -271.80664062 279.56152344 C-272.51089268 278.05883723 -273.2153324 276.55623897 -273.91992188 275.05371094 C-274.46749146 273.88376587 -274.46749146 273.88376587 -275.02612305 272.69018555 C-276.95709654 268.58030584 -278.93924064 264.51525821 -281.04492188 260.49121094 C-283.01431513 256.61170383 -284.33982804 252.74636832 -285.45898438 248.54589844 C-286.24894707 245.73095097 -286.24894707 245.73095097 -287.65820312 242.31542969 C-289.57086838 237.28321445 -290.68460905 232.12450953 -291.79492188 226.86621094 C-292.01180664 225.84180908 -292.22869141 224.81740723 -292.45214844 223.76196289 C-300.97793079 182.70818619 -299.37645806 135.05590905 -280.23242188 96.92871094 C-279.64803018 95.64058717 -279.06905088 94.35000053 -278.49414062 93.05761719 C-272.18197515 78.98856633 -264.37135505 64.65806501 -254.23242188 52.92871094 C-253.57242188 52.92871094 -252.91242188 52.92871094 -252.23242188 52.92871094 C-251.92304688 52.30996094 -251.61367187 51.69121094 -251.29492188 51.05371094 C-250.60742188 49.67871094 -249.91992188 48.30371094 -249.23242188 46.92871094 C-248.57242188 46.92871094 -247.91242188 46.92871094 -247.23242188 46.92871094 C-246.84570312 46.05472656 -246.84570312 46.05472656 -246.45117188 45.16308594 C-245.13408171 42.74842063 -243.68153803 41.11130916 -241.73242188 39.17871094 C-240.81976563 38.25832031 -240.81976563 38.25832031 -239.88867188 37.31933594 C-238.23242188 35.92871094 -238.23242188 35.92871094 -236.23242188 35.92871094 C-235.99652344 35.36152344 -235.760625 34.79433594 -235.51757812 34.20996094 C-229.67544508 23.83973086 -215.90588135 16.41114263 -206.23242188 9.92871094 C-205.13929688 9.19523437 -204.04617187 8.46175781 -202.91992188 7.70605469 C-143.10674403 -30.66898161 -62.49699046 -32.85098216 0 0 Z M-235.60742188 99.42871094 C-238.39784854 103.72167504 -239.48250357 106.42361617 -239.48638916 111.61509705 C-239.49202881 112.77452316 -239.49766846 113.93394928 -239.503479 115.12850952 C-239.49943054 116.39667511 -239.49538208 117.6648407 -239.49121094 118.97143555 C-239.49392168 120.3235035 -239.49748309 121.67556998 -239.50183105 123.02763367 C-239.51094829 126.69707382 -239.50741334 130.36640149 -239.50107288 134.03584361 C-239.49600841 137.87721608 -239.50070568 141.71857893 -239.50384521 145.55995178 C-239.50748399 152.01190926 -239.50268854 158.46382096 -239.49316406 164.91577148 C-239.48228428 172.37184953 -239.48580196 179.82781815 -239.49681687 187.28389353 C-239.50589777 193.68740586 -239.50717096 200.09088529 -239.50193954 206.49440199 C-239.49882366 210.31804768 -239.4983999 214.14164197 -239.50501251 217.96528435 C-239.51079685 221.56122384 -239.50676921 225.15702254 -239.495224 228.75294685 C-239.49132477 230.69975721 -239.49725414 232.64657948 -239.503479 234.59338379 C-239.49783936 235.75562973 -239.49219971 236.91787567 -239.48638916 238.11534119 C-239.48563511 239.1231964 -239.48488106 240.13105162 -239.48410416 241.1694479 C-239.21748021 244.0925206 -238.45498123 246.27437981 -237.23242188 248.92871094 C-236.57242188 248.92871094 -235.91242188 248.92871094 -235.23242188 248.92871094 C-235.00554687 249.52683594 -234.77867187 250.12496094 -234.54492188 250.74121094 C-232.84676388 253.57147425 -231.18097594 254.48871942 -228.23242188 255.92871094 C-224.68087898 256.80500555 -221.36992029 257.05771612 -217.71844482 257.06915283 C-216.62232376 257.07486298 -215.5262027 257.08057312 -214.39686584 257.0864563 C-213.20403488 257.08757416 -212.01120392 257.08869202 -210.78222656 257.08984375 C-209.51823532 257.09480865 -208.25424408 257.09977356 -206.95195007 257.10488892 C-203.49100894 257.11797357 -200.03008717 257.12445024 -196.56912518 257.12889957 C-194.40362732 257.13183685 -192.23813468 257.13594289 -190.07263947 257.14040375 C-183.28791382 257.15406872 -176.5032002 257.16374009 -169.71846175 257.16760564 C-161.90395569 257.17208318 -154.08962481 257.18962104 -146.275172 257.21860623 C-140.22317233 257.24026984 -134.17122178 257.25031242 -128.11918378 257.25164676 C-124.50999786 257.2526915 -120.90097684 257.25852834 -117.29183197 257.27646637 C-113.26117944 257.29611062 -109.23089055 257.29163952 -105.20019531 257.28515625 C-103.42309425 257.29897842 -103.42309425 257.29897842 -101.61009216 257.31307983 C-94.6161047 257.27790684 -87.08340096 257.19786577 -81.49010849 252.44963455 C-80.02000044 251.00075774 -80.02000044 251.00075774 -80.23242188 248.92871094 C-79.57242188 248.92871094 -78.91242188 248.92871094 -78.23242188 248.92871094 C-76.51201984 245.18576078 -75.97732013 242.25011076 -75.95826721 238.14225769 C-75.94330452 236.40755974 -75.94330452 236.40755974 -75.92803955 234.63781738 C-75.92737488 233.37796021 -75.92671021 232.11810303 -75.92602539 230.82006836 C-75.91839936 229.47271772 -75.9099711 228.12537142 -75.90080261 226.7780304 C-75.87889387 223.1250048 -75.87006358 219.47206289 -75.86497617 215.81897902 C-75.86132818 213.53421464 -75.85508582 211.24947202 -75.84797478 208.96471596 C-75.82349249 200.98680283 -75.81043111 193.00895462 -75.80688477 185.03100586 C-75.80325083 177.60606602 -75.77336282 170.18153988 -75.73148018 162.75672644 C-75.69673677 156.37267498 -75.68133563 149.98876036 -75.68063873 143.60461503 C-75.67984726 139.79582427 -75.67116933 135.98745512 -75.64264107 132.17876244 C-75.6163904 128.59410435 -75.61429319 125.01021534 -75.63029671 121.42550468 C-75.63296444 119.49235053 -75.610975 117.55921089 -75.58810425 115.62619019 C-75.64776131 108.50835498 -76.32055706 103.32427435 -81.23242188 97.92871094 C-86.05913726 94.16387294 -89.61207362 92.80786864 -95.66447449 92.78153992 C-97.35718475 92.77080696 -97.35718475 92.77080696 -99.08409119 92.75985718 C-100.3230867 92.75716827 -101.56208221 92.75447937 -102.83862305 92.75170898 C-104.79510269 92.74185219 -104.79510269 92.74185219 -106.79110718 92.73179626 C-111.11918918 92.71076972 -115.44727146 92.70039378 -119.77539062 92.69042969 C-121.26696605 92.68638132 -122.7585413 92.68226437 -124.25011635 92.67807961 C-131.25963061 92.65902938 -138.26913437 92.64479917 -145.27866954 92.63646764 C-153.36096559 92.6267017 -161.4429873 92.60039854 -169.52518672 92.55996674 C-175.77755212 92.52976609 -182.02983907 92.51499495 -188.28227597 92.51168662 C-192.01391706 92.50934021 -195.74526501 92.50043392 -199.47682762 92.47522545 C-203.64447546 92.44752614 -207.8115139 92.45178788 -211.97924805 92.45874023 C-213.20812241 92.44593018 -214.43699677 92.43312012 -215.70310974 92.41992188 C-223.83056157 92.46931527 -229.76532876 93.27913924 -235.60742188 99.42871094 Z M-49.54492188 110.30371094 C-52.73291369 115.26280931 -53.8377013 118.97679663 -53.23242188 124.92871094 C-52.10508452 127.72254699 -50.74646323 130.32645235 -49.23242188 132.92871094 C-48.57242188 132.92871094 -47.91242188 132.92871094 -47.23242188 132.92871094 C-47.23242188 133.58871094 -47.23242188 134.24871094 -47.23242188 134.92871094 C-40.94726447 138.00715538 -35.99617637 138.91908278 -29.10742188 136.92871094 C-25.15689675 135.26856808 -23.1090115 133.0506999 -21.08398438 129.30371094 C-19.1945405 124.03406931 -19.15806987 118.8062705 -21.11914062 113.55371094 C-23.15141768 109.88075838 -24.91298487 108.12157856 -28.54492188 105.92871094 C-36.3901813 103.80118296 -43.51159632 104.10732253 -49.54492188 110.30371094 Z M-5.23242188 117.92871094 C-5.56242187 118.25871094 -5.89242188 118.58871094 -6.23242188 118.92871094 C-6.73411603 121.7594453 -6.73411603 121.7594453 -6.23242188 124.92871094 C-3.89892987 127.76282248 -3.89892987 127.76282248 -1.23242188 129.92871094 C-0.90242188 130.25871094 -0.57242187 130.58871094 -0.23242188 130.92871094 C1.27498501 131.04787344 2.78786692 131.09879178 4.29980469 131.12158203 C5.26460754 131.13764496 6.2294104 131.15370789 7.22344971 131.17025757 C11.65010007 131.21458431 16.07659759 131.25578788 20.50341797 131.27880859 C22.83913136 131.29536013 25.17479427 131.32263926 27.51025391 131.36083984 C30.87233853 131.41558142 34.23323295 131.43748093 37.59570312 131.45214844 C38.63857483 131.47481781 39.68144653 131.49748718 40.75592041 131.52084351 C46.80502745 131.5375295 46.80502745 131.5375295 51.90332031 128.45849609 C52.82612793 127.20625244 52.82612793 127.20625244 53.76757812 125.92871094 C54.09757812 125.59871094 54.42757812 125.26871094 54.76757812 124.92871094 C55.26927228 122.09797658 55.26927228 122.09797658 54.76757812 118.92871094 C52.43408612 116.09459939 52.43408612 116.09459939 49.76757812 113.92871094 C49.27257812 113.43371094 49.27257812 113.43371094 48.76757812 112.92871094 C47.26017124 112.80954843 45.74728933 112.7586301 44.23535156 112.73583984 C43.27054871 112.71977692 42.30574585 112.70371399 41.31170654 112.68716431 C36.88505618 112.64283757 32.45855866 112.60163399 28.03173828 112.57861328 C25.69602489 112.56206175 23.36036198 112.53478262 21.02490234 112.49658203 C17.66281772 112.44184046 14.3019233 112.41994094 10.93945312 112.40527344 C9.89658142 112.38260406 8.85370972 112.35993469 7.77923584 112.33657837 C1.67759984 112.35437014 -1.38390702 112.70630248 -5.23242188 117.92871094 Z M-48.04492188 165.24121094 C-51.2314697 169.15611255 -53.01581865 172.25777177 -53.66992188 177.30371094 C-53.02255386 182.66761737 -51.50253837 186.76320811 -47.53710938 190.54589844 C-43.05463162 193.75803837 -39.04378939 194.64456961 -33.56445312 194.35839844 C-28.88655682 193.4964745 -25.22717444 190.52241401 -22.23242188 186.92871094 C-19.38215391 182.13941309 -19.53575208 177.3447568 -20.23242188 171.92871094 C-21.67166267 167.52331906 -23.64370714 164.80911329 -27.72070312 162.54980469 C-35.58861028 159.28194745 -41.26983665 159.6705853 -48.04492188 165.24121094 Z M-5.23242188 173.92871094 C-5.56242187 174.25871094 -5.89242188 174.58871094 -6.23242188 174.92871094 C-6.0108256 178.84357855 -5.80751559 181.22375735 -3.29492188 184.30371094 C-0.25716756 186.69709313 1.42875864 187.05801617 5.22973633 187.08984375 C6.15442215 187.09945129 7.07910797 187.10905884 8.03181458 187.11895752 C9.53490425 187.12533234 9.53490425 187.12533234 11.06835938 187.13183594 C12.09688522 187.13753601 13.12541107 187.14323608 14.18510437 187.14910889 C16.3648475 187.15856713 18.54460498 187.16509613 20.72436523 187.16894531 C24.05608164 187.1786411 27.38717873 187.2096531 30.71875 187.24121094 C32.83528279 187.24774187 34.95182 187.25299199 37.06835938 187.25683594 C38.06434647 187.26918274 39.06033356 187.28152954 40.08650208 187.29425049 C46.9351167 187.30048311 46.9351167 187.30048311 52.76757812 183.92871094 C55.10926576 180.41617948 55.2638149 179.06401738 54.76757812 174.92871094 C52.96764038 172.22880432 51.68380513 170.38682444 48.76757812 168.92871094 C47.22193814 168.81363424 45.67156714 168.75926088 44.12182617 168.73583984 C43.15709885 168.71977692 42.19237152 168.70371399 41.19841003 168.68716431 C36.78437975 168.6427458 32.37050028 168.60165094 27.95629883 168.57861328 C25.62742117 168.5620492 23.29859443 168.53475352 20.9699707 168.49658203 C17.61447745 168.44185092 14.26017622 168.41994446 10.90429688 168.40527344 C9.86456223 168.38260406 8.82482758 168.35993469 7.75358582 168.33657837 C1.65978477 168.35440617 -1.38696627 168.71659701 -5.23242188 173.92871094 Z M-51.23242188 224.92871094 C-53.56829525 229.04429735 -53.8169114 233.2893253 -53.23242188 237.92871094 C-51.48453526 242.62040658 -48.98777539 245.64277661 -45.23242188 248.92871094 C-42.00959775 250.00298565 -39.61731034 250.06200723 -36.23242188 250.05371094 C-35.18054688 250.05628906 -34.12867188 250.05886719 -33.04492188 250.06152344 C-30.1511531 250.05224729 -30.1511531 250.05224729 -27.23242188 248.92871094 C-27.23242188 248.26871094 -27.23242188 247.60871094 -27.23242188 246.92871094 C-26.63429688 246.72246094 -26.03617187 246.51621094 -25.41992188 246.30371094 C-22.21673468 244.29027899 -21.50445436 242.4904019 -20.23242188 238.92871094 C-19.27305103 232.69280045 -19.90800355 227.80657964 -23.61132812 222.62402344 C-27.18689703 218.88475379 -31.23382671 217.21422453 -36.29492188 216.49121094 C-42.69706197 217.44472116 -47.1042582 219.97491453 -51.23242188 224.92871094 Z M-5.23242188 229.92871094 C-6.55791019 233.37207868 -6.55791019 233.37207868 -6.23242188 236.92871094 C-4.46601015 239.7306054 -3.20192366 241.44396005 -0.23242188 242.92871094 C1.31321811 243.04378763 2.86358911 243.09816099 4.41333008 243.12158203 C5.3780574 243.13764496 6.34278473 243.15370789 7.33674622 243.17025757 C11.7507765 243.21467607 16.16465597 243.25577094 20.57885742 243.27880859 C22.90773508 243.29537268 25.23656182 243.32266836 27.56518555 243.36083984 C30.9206788 243.41557096 34.27498003 243.43747741 37.63085938 243.45214844 C38.67059402 243.47481781 39.71032867 243.49748718 40.78157043 243.52084351 C46.81626357 243.53587999 46.81626357 243.53587999 51.90112305 240.45849609 C52.82501831 239.20625244 52.82501831 239.20625244 53.76757812 237.92871094 C54.09757812 237.59871094 54.42757812 237.26871094 54.76757812 236.92871094 C55.05847946 233.65607091 55.13125173 231.58332342 53.51757812 228.67871094 C50.35805117 225.51918398 47.50222352 224.68036125 43.09423828 224.62231445 C42.17293121 224.60632706 41.25162415 224.59033966 40.30239868 224.5738678 C39.31379852 224.5685051 38.32519836 224.5631424 37.30664062 224.55761719 C36.28331635 224.54858871 35.25999207 224.53956024 34.20565796 224.53025818 C32.04208297 224.51575933 29.87846417 224.50686985 27.71484375 224.50317383 C24.41135509 224.49127855 21.10973512 224.44208877 17.80664062 224.39160156 C15.70248306 224.38213691 13.59831404 224.37490208 11.49414062 224.37011719 C10.50958893 224.35058487 9.52503723 224.33105255 8.51065063 224.31092834 C2.1620421 224.35252455 -0.94028141 225.12876179 -5.23242188 229.92871094 Z " fill="#3F7BED" transform="translate(344.232421875,70.0712890625)"/>
<path d="M0 0 C4.36350222 2.22291622 7.09544338 4.45022584 9 9 C9.52226197 13.10348694 9.35572507 15.31700787 7.4375 19 C4.95752846 22.05227266 2.33528758 24.77758526 -0.51171875 27.484375 C-2.10278722 28.94925826 -2.10278722 28.94925826 -3 31 C-3.66 31 -4.32 31 -5 31 C-5 31.66 -5 32.32 -5 33 C-5.66 33 -6.32 33 -7 33 C-7 33.66 -7 34.32 -7 35 C-7.66 35 -8.32 35 -9 35 C-9.39372803 35.87700562 -9.39372803 35.87700562 -9.79541016 36.77172852 C-11.06198533 39.11466156 -12.43348494 40.73337638 -14.2734375 42.65234375 C-14.92707275 43.33949463 -15.58070801 44.02664551 -16.25415039 44.73461914 C-16.95403076 45.46156982 -17.65391113 46.18852051 -18.375 46.9375 C-19.84036009 48.4760709 -21.30519987 50.0151375 -22.76953125 51.5546875 C-23.49221191 52.31233398 -24.21489258 53.06998047 -24.95947266 53.85058594 C-27.69049466 56.72734087 -30.38126208 59.63941219 -33.0625 62.5625 C-36.31017584 66.09782392 -39.57360937 69.61694532 -42.86328125 73.11328125 C-43.52900146 73.820896 -44.19472168 74.52851074 -44.88061523 75.25756836 C-46.16911559 76.62556488 -47.45890268 77.99235108 -48.75024414 79.35766602 C-52.16812945 82.98642343 -55.46051513 86.66878395 -58.60839844 90.53540039 C-61.11755406 93.17617663 -63.52119822 94.10030988 -67 95 C-74.69468682 94.74351044 -78.84917782 89.83628452 -83.875 84.53125 C-86 82 -86 82 -86 80 C-86.66 80 -87.32 80 -88 80 C-88 79.34 -88 78.68 -88 78 C-88.66 78 -89.32 78 -90 78 C-90 77.34 -90 76.68 -90 76 C-90.66 76 -91.32 76 -92 76 C-92 75.34 -92 74.68 -92 74 C-92.66 74 -93.32 74 -94 74 C-94 73.34 -94 72.68 -94 72 C-94.66 72 -95.32 72 -96 72 C-96 71.34 -96 70.68 -96 70 C-96.66 70 -97.32 70 -98 70 C-98 69.34 -98 68.68 -98 68 C-98.99 67.67 -99.98 67.34 -101 67 C-101 66.34 -101 65.68 -101 65 C-101.66 65 -102.32 65 -103 65 C-103 64.34 -103 63.68 -103 63 C-103.66 63 -104.32 63 -105 63 C-105 62.34 -105 61.68 -105 61 C-105.66 61 -106.32 61 -107 61 C-110.5522286 56.69426837 -112.43815773 52.67414259 -112 47 C-110.65434461 42.55579603 -108.69554377 40.42802694 -104.75 38 C-100.24817807 36.79951415 -97.53419919 37.1249791 -93 38 C-93 38.66 -93 39.32 -93 40 C-92.12601563 40.38671875 -92.12601563 40.38671875 -91.234375 40.78125 C-88.8197097 42.09834017 -87.18259823 43.55088384 -85.25 45.5 C-84.32960937 46.41265625 -84.32960937 46.41265625 -83.390625 47.34375 C-82 49 -82 49 -82 51 C-81.34 51 -80.68 51 -80 51 C-80 51.66 -80 52.32 -80 53 C-79.34 53 -78.68 53 -78 53 C-78 53.66 -78 54.32 -78 55 C-77.34 55 -76.68 55 -76 55 C-74.375 56.375 -74.375 56.375 -73 58 C-73 58.66 -73 59.32 -73 60 C-72.34 60 -71.68 60 -71 60 C-70.34 60.99 -69.68 61.98 -69 63 C-66.22503567 60.25414212 -63.45577033 57.5026051 -60.6875 54.75 C-59.50897461 53.58404297 -59.50897461 53.58404297 -58.30664062 52.39453125 C-57.54931641 51.64042969 -56.79199219 50.88632813 -56.01171875 50.109375 C-54.96697388 49.07248535 -54.96697388 49.07248535 -53.90112305 48.01464844 C-51.9516889 46.03744334 -51.9516889 46.03744334 -50.37426758 43.74316406 C-49.92075928 43.16791992 -49.46725098 42.59267578 -49 42 C-48.34 42 -47.68 42 -47 42 C-47 41.34 -47 40.68 -47 40 C-46.34 40 -45.68 40 -45 40 C-44.773125 39.46375 -44.54625 38.9275 -44.3125 38.375 C-42.54429911 35.17539839 -40.46329797 32.70962777 -38 30 C-37.34 30 -36.68 30 -36 30 C-36 29.34 -36 28.68 -36 28 C-34.125 25.875 -34.125 25.875 -32 24 C-31.34 24 -30.68 24 -30 24 C-29.59467041 23.10462524 -29.59467041 23.10462524 -29.18115234 22.19116211 C-28.00892606 20.01655878 -26.8671068 18.64850918 -25.1015625 16.94140625 C-24.53953125 16.39033203 -23.9775 15.83925781 -23.3984375 15.27148438 C-22.81320313 14.70751953 -22.22796875 14.14355469 -21.625 13.5625 C-18.51266347 10.5439504 -15.48433235 7.60584029 -12.7734375 4.21484375 C-9.18331406 -0.26885667 -5.4542009 -0.836724 0 0 Z " fill="#417CED" transform="translate(239,195)"/>
<path d="M0 0 C0.33 0 0.66 0 1 0 C1.1535914 9.10950671 1.3017731 18.21908038 1.4429636 27.3287878 C1.50868908 31.55835236 1.57630906 35.78786926 1.64819336 40.01733398 C1.71743964 44.09562245 1.78179482 48.17396094 1.84269524 52.25238228 C1.86685314 53.81180203 1.89280202 55.37119506 1.92053413 56.93055534 C1.95894479 59.10722545 1.99110362 61.28390181 2.02172852 63.46069336 C2.04171402 64.70201523 2.06169952 65.9433371 2.08229065 67.22227478 C2 70 2 70 1 71 C0.8768483 72.74838835 0.82212189 74.50164504 0.79467773 76.25415039 C0.77473251 77.37523697 0.75478729 78.49632355 0.73423767 79.65138245 C0.71752518 80.8711528 0.70081268 82.09092316 0.68359375 83.34765625 C0.66281265 84.58921982 0.64203156 85.83078339 0.62062073 87.10997009 C0.56616391 90.41599123 0.51595795 93.72202245 0.46777344 97.02813721 C0.41760144 100.39967491 0.36189299 103.77112053 0.30664062 107.14257812 C0.19929962 113.76164551 0.09755802 120.3807816 0 127 C-0.33 127 -0.66 127 -1 127 C-1.02341427 111.91780585 -1.04102094 96.83561311 -1.05181217 81.75340462 C-1.05695706 74.74965938 -1.06396515 67.74592547 -1.07543945 60.7421875 C-1.08651355 53.97947966 -1.09228954 47.21678357 -1.09487724 40.45406723 C-1.09672069 37.87778412 -1.10032046 35.30150163 -1.10573006 32.72522354 C-1.11302003 29.10863113 -1.11398759 25.49208689 -1.11352539 21.87548828 C-1.11712067 20.81740463 -1.12071594 19.75932098 -1.12442017 18.66917419 C-1.11576732 12.38597097 -0.75688803 6.23812919 0 0 Z " fill="#8AB0E6" transform="translate(269,178)"/>
<path d="M0 0 C4.36350222 2.22291622 7.09544338 4.45022584 9 9 C9.52226197 13.10348694 9.35572507 15.31700787 7.4375 19 C4.95752846 22.05227266 2.33528758 24.77758526 -0.51171875 27.484375 C-2.10278722 28.94925826 -2.10278722 28.94925826 -3 31 C-3.66 31 -4.32 31 -5 31 C-5 31.66 -5 32.32 -5 33 C-5.66 33 -6.32 33 -7 33 C-7.33 33.66 -7.66 34.32 -8 35 C-8 33.02 -8 31.04 -8 29 C-7.2575 28.814375 -6.515 28.62875 -5.75 28.4375 C-1.83471421 26.39087334 -0.95624725 23.9124945 1 20 C1.99 20 2.98 20 4 20 C3.773125 19.071875 3.54625 18.14375 3.3125 17.1875 C3.209375 16.135625 3.10625 15.08375 3 14 C4.4375 12.3125 4.4375 12.3125 6 11 C6 10.01 6 9.02 6 8 C3.525 7.505 3.525 7.505 1 7 C1 8.32 1 9.64 1 11 C0.34 11 -0.32 11 -1 11 C-1 9.68 -1 8.36 -1 7 C-2.32 7 -3.64 7 -5 7 C-5 6.34 -5 5.68 -5 5 C-3.35 4.67 -1.7 4.34 0 4 C0 3.34 0 2.68 0 2 C-1.423125 2.2784375 -1.423125 2.2784375 -2.875 2.5625 C-6 3 -6 3 -8 2 C-8.33 2.99 -8.66 3.98 -9 5 C-10.32 4.67 -11.64 4.34 -13 4 C-9.02242801 0.02242801 -5.49225099 -1.06614284 0 0 Z " fill="#5685E3" transform="translate(239,195)"/>
<path d="M0 0 C0 0.66 0 1.32 0 2 C0.87398437 2.38671875 0.87398437 2.38671875 1.765625 2.78125 C4.1802903 4.09834017 5.81740177 5.55088384 7.75 7.5 C8.36359375 8.1084375 8.9771875 8.716875 9.609375 9.34375 C11 11 11 11 11 13 C11.66 13 12.32 13 13 13 C13 13.66 13 14.32 13 15 C13.66 15 14.32 15 15 15 C15 15.66 15 16.32 15 17 C15.66 17 16.32 17 17 17 C18.625 18.5 18.625 18.5 20 20 C19.67 20.66 19.34 21.32 19 22 C18.01 21.67 17.02 21.34 16 21 C16 20.34 16 19.68 16 19 C14.35 19.33 12.7 19.66 11 20 C11 18.68 11 17.36 11 16 C9.19188058 13.28782086 7.81458408 11.40729204 4.875 9.9375 C3 9 3 9 2.0625 7.0625 C0.59340495 4.21072726 -1.14023316 3.36179373 -4 2 C-5.32 2 -6.64 2 -8 2 C-8.33 2.66 -8.66 3.32 -9 4 C-10.32 4 -11.64 4 -13 4 C-13.33 4.66 -13.66 5.32 -14 6 C-14.66 6 -15.32 6 -16 6 C-16.33 8.31 -16.66 10.62 -17 13 C-16.34 13 -15.68 13 -15 13 C-15 13.66 -15 14.32 -15 15 C-14.01 15 -13.02 15 -12 15 C-12 17.64 -12 20.28 -12 23 C-12.66 23 -13.32 23 -14 23 C-17.5522286 18.69426837 -19.43815773 14.67414259 -19 9 C-17.65434461 4.55579603 -15.69554377 2.42802694 -11.75 0 C-7.24817807 -1.20048585 -4.53419919 -0.8750209 0 0 Z " fill="#618DE0" transform="translate(146,233)"/>
<path d="M0 0 C0.7243071 0.16265854 1.4486142 0.32531708 2.19487 0.49290466 C4.83724033 0.97057724 7.20286781 1.12074699 9.88208008 1.11352539 C11.29297661 1.11341209 11.29297661 1.11341209 12.7323761 1.11329651 C13.7346373 1.10813522 14.7368985 1.10297394 15.76953125 1.09765625 C17.32374031 1.09553383 17.32374031 1.09553383 18.90934753 1.09336853 C22.21042804 1.08778242 25.51144008 1.07523242 28.8125 1.0625 C31.05403548 1.05748321 33.29557202 1.05292061 35.53710938 1.04882812 C41.02476284 1.03781753 46.51237653 1.02109318 52 1 C52 1.66 52 2.32 52 3 C51.1146331 3.00213753 51.1146331 3.00213753 50.21138 3.00431824 C44.06273041 3.02401917 37.91507305 3.07830102 31.7668457 3.15258789 C29.47297283 3.17577142 27.17899345 3.19016441 24.88500977 3.19555664 C21.58542484 3.2048432 18.28751586 3.24582988 14.98828125 3.29296875 C13.96414627 3.2890361 12.94001129 3.28510345 11.88484192 3.28105164 C7.12087098 3.37846715 4.74887864 3.44393291 0.83666992 6.34887695 C-1.38234473 9.55189172 -1.49841625 11.17880875 -1 15 C-0.67 15.99 -0.34 16.98 0 18 C-0.99 17.67 -1.98 17.34 -3 17 C-3.18451025 6.44191344 -3.18451025 6.44191344 -2 2 C-1.34 2 -0.68 2 0 2 C0 1.34 0 0.68 0 0 Z " fill="#5F88DA" transform="translate(340,180)"/>
<path d="M0 0 C0.66 0 1.32 0 2 0 C2.495 1.485 2.495 1.485 3 3 C-3.81708976 7.12613327 -3.81708976 7.12613327 -8.63330078 7.11352539 C-9.59414581 7.11344986 -10.55499084 7.11337433 -11.54495239 7.11329651 C-12.58457123 7.10813522 -13.62419006 7.10297394 -14.6953125 7.09765625 C-15.75789276 7.0962413 -16.82047302 7.09482635 -17.91525269 7.09336853 C-21.31853009 7.08775834 -24.72174238 7.07520409 -28.125 7.0625 C-30.42838447 7.05748631 -32.73176997 7.05292318 -35.03515625 7.04882812 C-40.69012649 7.0377856 -46.34505859 7.02103752 -52 7 C-52.33 6.34 -52.66 5.68 -53 5 C-52.39500671 4.99635437 -51.79001343 4.99270874 -51.16668701 4.98895264 C-44.87228928 4.94715638 -38.57862269 4.87783118 -32.28466797 4.79248047 C-29.93545848 4.76424712 -27.58615359 4.74304442 -25.23681641 4.72900391 C-21.86050482 4.70760776 -18.48534333 4.66097263 -15.109375 4.609375 C-14.05820496 4.60814636 -13.00703491 4.60691772 -11.92401123 4.60565186 C-6.23963907 4.6265771 -6.23963907 4.6265771 -1.43066406 1.96191406 C-0.95854492 1.31448242 -0.48642578 0.66705078 0 0 Z " fill="#5B85D8" transform="translate(397,196)"/>
<path d="M0 0 C0.28875 0.61875 0.5775 1.2375 0.875 1.875 C1.93720042 4.13325765 1.93720042 4.13325765 4 6 C-12.83 6 -29.66 6 -47 6 C-43.91356227 2.91356227 -40.20240583 3.64134992 -36.0546875 3.5859375 C-34.72716965 3.55688828 -34.72716965 3.55688828 -33.37283325 3.5272522 C-30.54032084 3.46737277 -27.70776797 3.42103787 -24.875 3.375 C-22.95701332 3.33682789 -21.03904393 3.29777662 -19.12109375 3.2578125 C-14.41420252 3.16166445 -9.70723104 3.07766458 -5 3 C-4.67 2.34 -4.34 1.68 -4 1 C-1.9375 0.375 -1.9375 0.375 0 0 Z " fill="#759CE2" transform="translate(390,233)"/>
<path d="M0 0 C0.76030014 -0.0033284 1.52060028 -0.0066568 2.30393982 -0.01008606 C3.905013 -0.01513099 5.50609661 -0.01749514 7.10717773 -0.01733398 C9.55404891 -0.01952718 12.00047369 -0.03772656 14.44726562 -0.05664062 C16.00650888 -0.05957373 17.56575427 -0.06155908 19.125 -0.0625 C19.85425186 -0.06968552 20.58350372 -0.07687103 21.33485413 -0.08427429 C25.05147945 -0.0675639 27.84000398 0.10529522 30.99609375 2.16796875 C16.23889868 3.44131686 1.75051577 3.33995121 -13.00390625 2.16796875 C-13.00390625 1.83796875 -13.00390625 1.50796875 -13.00390625 1.16796875 C-8.66851016 0.10674678 -4.43745606 0.00679032 0 0 Z " fill="#6992DE" transform="translate(240.00390625,448.83203125)"/>
<path d="M0 0 C1.05119019 -0.00315216 2.10238037 -0.00630432 3.1854248 -0.009552 C4.31984009 -0.00752777 5.45425537 -0.00550354 6.62304688 -0.00341797 C7.78807739 -0.00437469 8.95310791 -0.00533142 10.15344238 -0.00631714 C12.61808323 -0.00699802 15.08272587 -0.00515011 17.54736328 -0.00097656 C21.32653825 0.00437293 25.10559437 -0.00092468 28.88476562 -0.00732422 C31.27669297 -0.00666342 33.66862024 -0.00538223 36.06054688 -0.00341797 C37.7621698 -0.00645432 37.7621698 -0.00645432 39.49816895 -0.009552 C41.07495422 -0.00482376 41.07495422 -0.00482376 42.68359375 0 C44.07233704 0.00119339 44.07233704 0.00119339 45.48913574 0.00241089 C47.84179688 0.12939453 47.84179688 0.12939453 50.84179688 1.12939453 C51.52929688 3.19189453 51.52929688 3.19189453 51.84179688 5.12939453 C51.18179688 5.45939453 50.52179688 5.78939453 49.84179688 6.12939453 C49.34679687 5.13939453 49.34679687 5.13939453 48.84179688 4.12939453 C45.89805837 2.28900614 43.60895037 1.87132993 40.16845703 1.83886719 C38.78649643 1.81972763 38.78649643 1.81972763 37.37661743 1.80020142 C36.38801727 1.79797577 35.39941711 1.79575012 34.38085938 1.79345703 C33.3575351 1.78680023 32.33421082 1.78014343 31.27987671 1.77328491 C29.11629024 1.76316555 26.95267261 1.75846767 24.7890625 1.75878906 C21.48580246 1.75441967 18.18388274 1.71810194 14.88085938 1.68017578 C12.77669727 1.67430668 10.67252883 1.67033791 8.56835938 1.66845703 C7.09153183 1.64690048 7.09153183 1.64690048 5.58486938 1.62490845 C-0.31435475 1.66404063 -3.61333439 2.28373637 -8.15820312 6.12939453 C-8.15820312 4.47939453 -8.15820312 2.82939453 -8.15820312 1.12939453 C-5.14837856 0.12611968 -3.14505374 0.00270264 0 0 Z " fill="#5E86CD" transform="translate(347.158203125,293.87060546875)"/>
<path d="M0 0 C0.66 0.33 1.32 0.66 2 1 C1.38125 1.9075 0.7625 2.815 0.125 3.75 C-1.99648232 6.73960709 -1.99648232 6.73960709 -2.875 9.3125 C-4 11 -4 11 -7.125 11.75 C-8.548125 11.87375 -8.548125 11.87375 -10 12 C-10 12.99 -10 13.98 -10 15 C-11.375 16.5 -11.375 16.5 -13 18 C-13.66 18.99 -14.32 19.98 -15 21 C-17.625 21.6875 -17.625 21.6875 -20 22 C-20 21.34 -20 20.68 -20 20 C-19.34 20 -18.68 20 -18 20 C-17.61328125 19.12601563 -17.61328125 19.12601563 -17.21875 18.234375 C-15.90165983 15.8197097 -14.44911616 14.18259823 -12.5 12.25 C-11.8915625 11.63640625 -11.283125 11.0228125 -10.65625 10.390625 C-9 9 -9 9 -7 9 C-6.773125 8.443125 -6.54625 7.88625 -6.3125 7.3125 C-4.64103234 4.36753316 -2.44723648 2.31843456 0 0 Z M-5 11 C-4.34 12.32 -3.68 13.64 -3 15 C-3.99 14.67 -4.98 14.34 -6 14 C-5.67 13.01 -5.34 12.02 -5 11 Z " fill="#5887E1" transform="translate(115,97)"/>
<path d="M0 0 C0.33 0.66 0.66 1.32 1 2 C-3.75 5 -3.75 5 -6 5 C-5.34 5.66 -4.68 6.32 -4 7 C-6.55991256 7.51198251 -9.11042442 8.01797607 -11.6875 8.4375 C-14.17757117 8.83093987 -14.17757117 8.83093987 -16 11 C-18.1640625 11.4140625 -18.1640625 11.4140625 -20.625 11.625 C-21.44226563 11.69976562 -22.25953125 11.77453125 -23.1015625 11.8515625 C-23.72804687 11.90054688 -24.35453125 11.94953125 -25 12 C-21.38645431 8.93083262 -17.38132712 7.26817877 -13.0625 5.4375 C-12.35931641 5.13392578 -11.65613281 4.83035156 -10.93164062 4.51757812 C-7.30810286 2.95881165 -3.67110085 1.44401423 0 0 Z " fill="#4E7FDC" transform="translate(178,60)"/>
<path d="M0 0 C0.33 0 0.66 0 1 0 C1 1.98 1 3.96 1 6 C0.34 6 -0.32 6 -1 6 C-1.4125 6.969375 -1.825 7.93875 -2.25 8.9375 C-4 12 -4 12 -6.0625 12.6875 C-6.701875 12.790625 -7.34125 12.89375 -8 13 C-10.10232344 15.8684413 -10.10232344 15.8684413 -11 19 C-12.32 18.01 -13.64 17.02 -15 16 C-14.04882866 14.8274869 -13.08882991 13.66212985 -12.125 12.5 C-11.59132812 11.8503125 -11.05765625 11.200625 -10.5078125 10.53125 C-9.76144531 9.77328125 -9.76144531 9.77328125 -9 9 C-8.34 9 -7.68 9 -7 9 C-7 8.34 -7 7.68 -7 7 C-5.125 4.875 -5.125 4.875 -3 3 C-2.34 3 -1.68 3 -1 3 C-0.67 2.01 -0.34 1.02 0 0 Z " fill="#6E96E8" transform="translate(210,216)"/>
<path d="M0 0 C0.66 0 1.32 0 2 0 C0.70396588 2.82868857 -0.69189598 4.9701021 -2.8203125 7.234375 C-3.35527344 7.80800781 -3.89023438 8.38164062 -4.44140625 8.97265625 C-4.99699219 9.55917969 -5.55257812 10.14570313 -6.125 10.75 C-6.68832031 11.35199219 -7.25164062 11.95398438 -7.83203125 12.57421875 C-9.21724146 14.05334151 -10.6080729 15.52719641 -12 17 C-13 14 -13 14 -12.0625 11.8125 C-11.5365625 10.9153125 -11.5365625 10.9153125 -11 10 C-10.34 10 -9.68 10 -9 10 C-9 8.68 -9 7.36 -9 6 C-6.69 5.34 -4.38 4.68 -2 4 C-2 3.34 -2 2.68 -2 2 C-1.34 2 -0.68 2 0 2 C0 1.34 0 0.68 0 0 Z " fill="#5B87DE" transform="translate(227,231)"/>
<path d="M0 0 C0.66 0.33 1.32 0.66 2 1 C3.33599921 0.67751743 4.66893378 0.34227417 6 0 C7.66623639 -0.03786901 9.33397597 -0.04627845 11 0 C9.04297985 1.3046801 7.06417543 2.57742367 5.0625 3.8125 C2.06267968 5.9552288 0.14579544 8.02889862 -2 11 C-4.20100503 5.61976549 -4.20100503 5.61976549 -3.25 2.6875 C-2 1 -2 1 0 0 Z " fill="#4B83E5" transform="translate(108,163)"/>
<path d="M0 0 C1.33998047 0.31324219 1.33998047 0.31324219 2.70703125 0.6328125 C3.60808594 0.83648437 4.50914062 1.04015625 5.4375 1.25 C6.46810547 1.50136719 6.46810547 1.50136719 7.51953125 1.7578125 C7.18953125 2.4178125 6.85953125 3.0778125 6.51953125 3.7578125 C3.98794465 4.39583086 1.52113623 4.92468618 -1.04296875 5.3828125 C-1.75388672 5.516875 -2.46480469 5.6509375 -3.19726562 5.7890625 C-4.95689428 6.11973097 -6.71851423 6.43977017 -8.48046875 6.7578125 C-8.48046875 5.7678125 -8.48046875 4.7778125 -8.48046875 3.7578125 C-6.83046875 3.7578125 -5.18046875 3.7578125 -3.48046875 3.7578125 C-4.14046875 3.0978125 -4.80046875 2.4378125 -5.48046875 1.7578125 C-2.48046875 -0.2421875 -2.48046875 -0.2421875 0 0 Z " fill="#5384E0" transform="translate(297.48046875,441.2421875)"/>
<path d="M0 0 C4.455 0.99 4.455 0.99 9 2 C9 2.33 9 2.66 9 3 C7.63875 3.37125 7.63875 3.37125 6.25 3.75 C2.79182829 5.08006604 1.16071801 6.0082366 -1 9 C-1.35457365 12.47482175 -1.1054086 14.68377419 0 18 C-0.99 17.67 -1.98 17.34 -3 17 C-3.18451025 6.44191344 -3.18451025 6.44191344 -2 2 C-1.34 2 -0.68 2 0 2 C0 1.34 0 0.68 0 0 Z " fill="#5086E2" transform="translate(340,180)"/>
<path d="M0 0 C0.56847656 0.32484375 1.13695312 0.6496875 1.72265625 0.984375 C1.72265625 1.644375 1.72265625 2.304375 1.72265625 2.984375 C0.65337891 2.82388672 0.65337891 2.82388672 -0.4375 2.66015625 C-6.78868881 1.86518914 -10.6540908 1.87363933 -16.27734375 4.984375 C-17.26734375 5.479375 -17.26734375 5.479375 -18.27734375 5.984375 C-18.27734375 4.994375 -18.27734375 4.004375 -18.27734375 2.984375 C-17.61734375 2.984375 -16.95734375 2.984375 -16.27734375 2.984375 C-16.27734375 2.324375 -16.27734375 1.664375 -16.27734375 0.984375 C-11.30352013 -1.58275977 -5.18946161 -2.31433966 0 0 Z " fill="#648DE1" transform="translate(314.27734375,286.015625)"/>
<path d="M0 0 C2.94721162 2.74395564 5.19168608 5.38337216 7 9 C6.67 9.66 6.34 10.32 6 11 C5.01 11.33 4.02 11.66 3 12 C2.67 12.66 2.34 13.32 2 14 C0.02905192 9.07262981 -0.1799928 5.21979128 0 0 Z " fill="#5B8EE9" transform="translate(418,136)"/>
<path d="M0 0 C2.12744999 0.78505901 4.25189674 1.5782606 6.375 2.375 C7.55835938 2.81585938 8.74171875 3.25671875 9.9609375 3.7109375 C13 5 13 5 15 7 C12.27157939 8.36421031 10.39046682 7.87807211 7.375 7.5625 C6.37210937 7.46066406 5.36921875 7.35882813 4.3359375 7.25390625 C3.56507813 7.17011719 2.79421875 7.08632812 2 7 C2.33 5.68 2.66 4.36 3 3 C2.01 2.67 1.02 2.34 0 2 C0 1.34 0 0.68 0 0 Z " fill="#5A86E1" transform="translate(330,64)"/>
<path d="M0 0 C2.0625 0.4375 2.0625 0.4375 4 1 C0.49925018 5.17443363 -2.97950843 9.3145494 -7 13 C-7.66 13 -8.32 13 -9 13 C-9 12.01 -9 11.02 -9 10 C-8.01 10 -7.02 10 -6 10 C-6 9.34 -6 8.68 -6 8 C-5.34 8 -4.68 8 -4 8 C-4 7.01 -4 6.02 -4 5 C-3.34 5 -2.68 5 -2 5 C-1.855625 4.360625 -1.71125 3.72125 -1.5625 3.0625 C-1 1 -1 1 0 0 Z " fill="#5989DF" transform="translate(394,387)"/>
<path d="M0 0 C3.10408807 -0.05807043 6.2080364 -0.09361914 9.3125 -0.125 C10.19357422 -0.14175781 11.07464844 -0.15851562 11.98242188 -0.17578125 C12.82998047 -0.18222656 13.67753906 -0.18867187 14.55078125 -0.1953125 C15.72120972 -0.21102295 15.72120972 -0.21102295 16.9152832 -0.22705078 C19 0 19 0 22 2 C15.28458266 3.16228377 8.73445831 3.19148109 2 2 C1.34 1.34 0.68 0.68 0 0 Z " fill="#4A7BDA" transform="translate(251,48)"/>
<path d="M0 0 C0.33 0 0.66 0 1 0 C1.33 2.97 1.66 5.94 2 9 C2.66 9 3.32 9 4 9 C3.88590407 10.45922693 3.75834456 11.91740598 3.625 13.375 C3.55539063 14.18710937 3.48578125 14.99921875 3.4140625 15.8359375 C3 18 3 18 1 20 C-1.39755352 6.96330275 -1.39755352 6.96330275 -1 1 C-0.67 0.67 -0.34 0.34 0 0 Z " fill="#5A88DE" transform="translate(50,271)"/>
<path d="M0 0 C-3.08590555 2.05727037 -5.9934868 3.32318603 -9.4375 4.6875 C-10.57058594 5.14511719 -11.70367187 5.60273438 -12.87109375 6.07421875 C-15.90109784 6.97073681 -17.13270113 7.16241846 -20 6 C-13.25 3 -13.25 3 -11 3 C-11 2.34 -11 1.68 -11 1 C-7.26562152 0.12132271 -3.83225427 -0.08912219 0 0 Z " fill="#6490DB" transform="translate(328,436)"/>
<path d="M0 0 C0.33 0 0.66 0 1 0 C1.25515919 7.52719602 0.28297723 14.58851545 -1 22 C-1.33 22 -1.66 22 -2 22 C-2.05434116 19.4580411 -2.0938339 16.91726318 -2.125 14.375 C-2.14175781 13.66214844 -2.15851563 12.94929688 -2.17578125 12.21484375 C-2.21684602 7.7387836 -1.69086567 4.22050722 0 0 Z " fill="#5F8ADD" transform="translate(451,265)"/>
<path d="M0 0 C0.28875 0.61875 0.5775 1.2375 0.875 1.875 C1.93720042 4.13325765 1.93720042 4.13325765 4 6 C-0.95 6 -5.9 6 -11 6 C-11 5.67 -11 5.34 -11 5 C-9.02 5 -7.04 5 -5 5 C-4.67 3.68 -4.34 2.36 -4 1 C-2.68 0.67 -1.36 0.34 0 0 Z " fill="#5A8DE3" transform="translate(390,233)"/>
<path d="M0 0 C-0.8353125 0.37125 -0.8353125 0.37125 -1.6875 0.75 C-7.53652578 3.91163556 -9.77348495 6.90637985 -12 13 C-12.33 13 -12.66 13 -13 13 C-13 9.7 -13 6.4 -13 3 C-12.01 3.33 -11.02 3.66 -10 4 C-10.33 3.01 -10.66 2.02 -11 1 C-7.26562152 0.12132271 -3.83225427 -0.08912219 0 0 Z " fill="#7097E6" transform="translate(304,175)"/>
<path d="M0 0 C1.27617187 0.00483398 1.27617187 0.00483398 2.578125 0.00976562 C3.46757812 0.01814453 4.35703125 0.02652344 5.2734375 0.03515625 C6.170625 0.03966797 7.0678125 0.04417969 7.9921875 0.04882812 C10.21100398 0.06063034 12.42968768 0.0770947 14.6484375 0.09765625 C11.85074451 2.89534924 9.03293067 2.62692843 5.2734375 2.84765625 C4.60054687 2.90308594 3.92765625 2.95851562 3.234375 3.015625 C-0.52518031 3.25984808 -3.1698814 3.21877699 -6.3515625 1.09765625 C-4.00303722 -0.07660639 -2.61382185 -0.01742548 0 0 Z " fill="#4B7CDA" transform="translate(235.3515625,47.90234375)"/>
<path d="M0 0 C2 1 2 1 3 2 C4.32520503 2.68268138 5.65812182 3.3507041 7 4 C6.67 5.32 6.34 6.64 6 8 C1.89041233 6.54955729 -1.43258745 4.48889248 -5 2 C-4.360625 1.855625 -3.72125 1.71125 -3.0625 1.5625 C-1.02454854 1.18992819 -1.02454854 1.18992819 0 0 Z " fill="#5B8DE2" transform="translate(143,417)"/>
<path d="M0 0 C0.99 0.495 0.99 0.495 2 1 C2.6328125 3.28515625 2.6328125 3.28515625 3.125 6.0625 C3.29257813 6.98160156 3.46015625 7.90070313 3.6328125 8.84765625 C3.75398438 9.55792969 3.87515625 10.26820313 4 11 C4.66 11 5.32 11 6 11 C7.7143618 12.95927063 9.38405168 14.95880212 11 17 C9.35 16.67 7.7 16.34 6 16 C5.67 14.68 5.34 13.36 5 12 C4.34 12 3.68 12 3 12 C0.97667384 10.13231431 0.06701213 8.71661952 -0.19140625 5.953125 C-0.18788604 3.9677277 -0.09914617 1.98292332 0 0 Z " fill="#537DD0" transform="translate(103,308)"/>
<path d="M0 0 C0.33 0 0.66 0 1 0 C1.10957031 0.59167969 1.21914063 1.18335938 1.33203125 1.79296875 C2.26240653 6.42971708 3.25351767 10.05939492 6 14 C6.33 14.66 6.66 15.32 7 16 C6.01 16 5.02 16 4 16 C3.34 15.01 2.68 14.02 2 13 C1.01 12.67 0.02 12.34 -1 12 C-1.02687279 10.18757948 -1.04633715 8.37504767 -1.0625 6.5625 C-1.07410156 5.55316406 -1.08570313 4.54382813 -1.09765625 3.50390625 C-1 1 -1 1 0 0 Z " fill="#6691DF" transform="translate(290,301)"/>
<path d="M0 0 C2.25668692 3.38503038 2.18818083 4.12555895 1.75 8 C1.61851563 9.299375 1.61851563 9.299375 1.484375 10.625 C1 13 1 13 -1 16 C-1.66 16 -2.32 16 -3 16 C-2.52013969 10.43109483 -1.70084819 5.32932432 0 0 Z " fill="#5288E1" transform="translate(57,184)"/>
<path d="M0 0 C1 3 1 3 0.0625 5.1875 C-0.288125 5.785625 -0.63875 6.38375 -1 7 C-1.66 7 -2.32 7 -3 7 C-3.33 7.66 -3.66 8.32 -4 9 C-4.33 8.01 -4.66 7.02 -5 6 C-5.66 6 -6.32 6 -7 6 C-7 6.66 -7 7.32 -7 8 C-8.32 7.67 -9.64 7.34 -11 7 C-7.37 4.69 -3.74 2.38 0 0 Z " fill="#5684E2" transform="translate(143,77)"/>
<path d="M0 0 C1.32 0.33 2.64 0.66 4 1 C4.68359375 2.765625 4.68359375 2.765625 5 5 C3.78515625 6.921875 3.78515625 6.921875 2.0625 8.75 C1.49660156 9.36359375 0.93070313 9.9771875 0.34765625 10.609375 C-0.31943359 11.29773438 -0.31943359 11.29773438 -1 12 C-1.66 11.67 -2.32 11.34 -3 11 C-2.34 9.35 -1.68 7.7 -1 6 C-0.34 6 0.32 6 1 6 C0.67 4.02 0.34 2.04 0 0 Z " fill="#5687E8" transform="translate(208,245)"/>
<path d="M0 0 C3.35433109 0.94933899 6.69246505 1.89748835 10 3 C10 3.66 10 4.32 10 5 C10.66 5.33 11.32 5.66 12 6 C10.35 6.66 8.7 7.32 7 8 C5.83035398 6.8572081 4.66435444 5.71068285 3.5 4.5625 C2.8503125 3.92441406 2.200625 3.28632813 1.53125 2.62890625 C0 1 0 1 0 0 Z " fill="#608DE6" transform="translate(157,280)"/>
<path d="M0 0 C0.33 0.99 0.66 1.98 1 3 C1.66 3 2.32 3 3 3 C2 6 2 6 0.1875 7.125 C-1.86604461 7.94641784 -3.83980804 8.53710172 -6 9 C-6 9.66 -6 10.32 -6 11 C-7.65 11 -9.3 11 -11 11 C-11 10.34 -11 9.68 -11 9 C-8.09399739 7.74335022 -6.20395416 7 -3 7 C-1.79371992 4.66785852 -0.8345262 2.50357861 0 0 Z " fill="#648EE3" transform="translate(322,198)"/>
<path d="M0 0 C2.64 0.33 5.28 0.66 8 1 C8 1.66 8 2.32 8 3 C8.8971875 3.37125 8.8971875 3.37125 9.8125 3.75 C12.28647521 5.16370012 13.43370255 6.65055383 15 9 C10.55387197 8.50598577 9.0883494 7.0883494 6 4 C2.86649283 2.73215876 2.86649283 2.73215876 0 2 C0 1.34 0 0.68 0 0 Z " fill="#6E91DB" transform="translate(138,232)"/>
<path d="M0 0 C0.33 0.99 0.66 1.98 1 3 C4.6037898 4.52160014 7.05220686 5 11 5 C11 5.99 11 6.98 11 8 C10.01 8 9.02 8 8 8 C7.34 9.32 6.68 10.64 6 12 C2 6.25 2 6.25 2 4 C1.34 4 0.68 4 0 4 C0 2.68 0 1.36 0 0 Z " fill="#5A86E0" transform="translate(317,230)"/>
<path d="M0 0 C1.80806372 2.71209558 3.06810009 4.89366697 4 8 C3.01 9.485 3.01 9.485 2 11 C1.34 11 0.68 11 0 11 C-1.125 9.4375 -1.125 9.4375 -2 7 C-1.125 3.25 -1.125 3.25 0 0 Z " fill="#5A8EEA" transform="translate(291,251)"/>
<path d="M0 0 C0.66 1.32 1.32 2.64 2 4 C-2.455 5.485 -2.455 5.485 -7 7 C-6 3 -6 3 -4 1 C-1.875 0.375 -1.875 0.375 0 0 Z " fill="#4F80E7" transform="translate(325,256)"/>
<path d="M0 0 C0.66 0.99 1.32 1.98 2 3 C0.02 5.31 -1.96 7.62 -4 10 C-4.33 9.34 -4.66 8.68 -5 8 C-5.66 7.67 -6.32 7.34 -7 7 C-4.69 4.69 -2.38 2.38 0 0 Z " fill="#618CE5" transform="translate(184,244)"/>
<path d="M0 0 C0.33 0 0.66 0 1 0 C1 1.98 1 3.96 1 6 C0.34 6 -0.32 6 -1 6 C-1.99 7.98 -2.98 9.96 -4 12 C-4.66 11.34 -5.32 10.68 -6 10 C-4.125 5.25 -4.125 5.25 -3 3 C-2.34 3 -1.68 3 -1 3 C-0.67 2.01 -0.34 1.02 0 0 Z " fill="#5D8BE1" transform="translate(210,216)"/>
<path d="M0 0 C0.66 0.66 1.32 1.32 2 2 C-5.75 3.125 -5.75 3.125 -8 2 C-8.33 2.99 -8.66 3.98 -9 5 C-10.32 4.67 -11.64 4.34 -13 4 C-8.63577725 -0.36422275 -5.89851219 -0.58018153 0 0 Z " fill="#799CDD" transform="translate(239,195)"/>
<path d="M0 0 C2.62561109 -0.08074203 5.24875676 -0.1403623 7.875 -0.1875 C8.99455078 -0.22520508 8.99455078 -0.22520508 10.13671875 -0.26367188 C12.3046875 -0.29296875 12.3046875 -0.29296875 16 0 C16.66 0.99 17.32 1.98 18 3 C15.93722893 2.85805236 13.87478969 2.71127784 11.8125 2.5625 C10.66394531 2.48128906 9.51539063 2.40007812 8.33203125 2.31640625 C5.48401829 2.04596188 2.78789518 1.62478253 0 1 C0 0.67 0 0.34 0 0 Z " fill="#6696E2" transform="translate(208,447)"/>
<path d="M0 0 C2.2477975 2.05233685 3.0022242 3.00667261 4 6 C3.01 6 2.02 6 1 6 C0.67 6.99 0.34 7.98 0 9 C-1.65 9 -3.3 9 -5 9 C-3.625 6.5 -3.625 6.5 -2 4 C-1.34 4 -0.68 4 0 4 C0 2.68 0 1.36 0 0 Z " fill="#5989E3" transform="translate(266,315)"/>
<path d="M0 0 C0.99 0.33 1.98 0.66 3 1 C2.67 3.97 2.34 6.94 2 10 C1.34 10 0.68 10 0 10 C-1.49106457 7.01787087 -1.11941467 4.28390342 -1 1 C-0.67 0.67 -0.34 0.34 0 0 Z " fill="#5384E3" transform="translate(441,305)"/>
<path d="M0 0 C0.66 0 1.32 0 2 0 C0.50902342 3.7952131 -1.75700849 5.61042731 -5 8 C-5.66 6.68 -6.32 5.36 -7 4 C-6.030625 3.525625 -5.06125 3.05125 -4.0625 2.5625 C-1.19522563 1.29806053 -1.19522563 1.29806053 0 0 Z " fill="#618EE2" transform="translate(201,259)"/>
<path d="M0 0 C2.26335337 3.39503005 2.18567637 4.17007563 1.75 8.0625 C1.66234375 8.94035156 1.5746875 9.81820312 1.484375 10.72265625 C1 13 1 13 -1 15 C-1.10251672 9.87416389 -1.03590199 5.05002222 0 0 Z " fill="#5884D9" transform="translate(51,207)"/>
<path d="M0 0 C2 3 2 3 1.625 5.1875 C1.41875 5.785625 1.2125 6.38375 1 7 C0.34 7 -0.32 7 -1 7 C-1.33 8.65 -1.66 10.3 -2 12 C-2.99 12 -3.98 12 -5 12 C-3.68938409 7.76570244 -2.05643741 3.92592596 0 0 Z " fill="#618FDE" transform="translate(70,154)"/>
<path d="M0 0 C2.64 0.33 5.28 0.66 8 1 C5.6120592 3.3879408 4.23091381 3.35381724 1 4 C0.34 4.66 -0.32 5.32 -1 6 C-1.66 6 -2.32 6 -3 6 C-3.33 5.01 -3.66 4.02 -4 3 C-3.01 2.67 -2.02 2.34 -1 2 C-0.67 1.34 -0.34 0.68 0 0 Z " fill="#5589E3" transform="translate(282,50)"/>
<path d="M0 0 C2.4375 0.6875 2.4375 0.6875 5 2 C5.8125 4.625 5.8125 4.625 6 7 C6.99 7.33 7.98 7.66 9 8 C8.34 8.66 7.68 9.32 7 10 C5.82438854 8.90536178 4.6597511 7.79892814 3.5 6.6875 C2.52546875 5.76517578 2.52546875 5.76517578 1.53125 4.82421875 C0 3 0 3 0 0 Z " fill="#4D7ED6" transform="translate(101,385)"/>
<path d="M0 0 C0.33 0.99 0.66 1.98 1 3 C0.54625 3.391875 0.0925 3.78375 -0.375 4.1875 C-2.27642919 6.30832487 -3.06204028 8.33042235 -4 11 C-5.65 11 -7.3 11 -9 11 C-8.60167969 10.54109375 -8.20335937 10.0821875 -7.79296875 9.609375 C-5.08857938 6.47728415 -2.42008229 3.36122541 0 0 Z " fill="#668ED9" transform="translate(225,200)"/>
<path d="M0 0 C2.375 -0.125 2.375 -0.125 5 0 C5.66 0.66 6.32 1.32 7 2 C6.625 4.625 6.625 4.625 6 7 C1.125 2.25 1.125 2.25 0 0 Z " fill="#5D8EE0" transform="translate(93,378)"/>
<path d="M0 0 C0.928125 0.20625 1.85625 0.4125 2.8125 0.625 C1.8225 1.12 1.8225 1.12 0.8125 1.625 C0.4825 2.285 0.1525 2.945 -0.1875 3.625 C-1.5075 3.625 -2.8275 3.625 -4.1875 3.625 C-4.5175 4.285 -4.8475 4.945 -5.1875 5.625 C-5.8475 5.625 -6.5075 5.625 -7.1875 5.625 C-6.875 3.75 -6.875 3.75 -6.1875 1.625 C-3.1875 -0.375 -3.1875 -0.375 0 0 Z " fill="#5483D9" transform="translate(137.1875,233.375)"/>
<path d="M0 0 C0.33 0 0.66 0 1 0 C1.53293835 1.74635165 2.05090663 3.49727652 2.5625 5.25 C2.85253906 6.22453125 3.14257812 7.1990625 3.44140625 8.203125 C3.99249836 10.96243932 3.93789609 12.3912824 3 15 C-1.77676538 5.77448747 -1.77676538 5.77448747 0 0 Z " fill="#6B92DC" transform="translate(442,183)"/>
<path d="M0 0 C0 0.66 0 1.32 0 2 C-0.99 1.690625 -1.98 1.38125 -3 1.0625 C-6.97731122 -0.08433207 -10.88767379 -0.56712356 -15 -1 C-15 -1.33 -15 -1.66 -15 -2 C-9.23716795 -3.23489258 -4.99782407 -3.33188271 0 0 Z " fill="#7399E1" transform="translate(319,176)"/>
<path d="M0 0 C3 1 3 1 4 2 C4.33 2.99 4.66 3.98 5 5 C5.66 5.66 6.32 6.32 7 7 C6.01 7.495 6.01 7.495 5 8 C3.02 6.35 1.04 4.7 -1 3 C-0.67 2.01 -0.34 1.02 0 0 Z " fill="#6892DC" transform="translate(112,395)"/>
<path d="M0 0 C1.05767578 0.49113281 1.05767578 0.49113281 2.13671875 0.9921875 C5.23867167 2.08400722 7.54006053 2.20385396 10.8125 2.125 C11.78832031 2.10695313 12.76414062 2.08890625 13.76953125 2.0703125 C14.50558594 2.04710937 15.24164063 2.02390625 16 2 C15.67 2.99 15.34 3.98 15 5 C12.87420987 4.94011859 10.74921587 4.85137256 8.625 4.75 C6.84996094 4.68039062 6.84996094 4.68039062 5.0390625 4.609375 C2 4 2 4 0.5859375 1.953125 C0.39257812 1.30859375 0.19921875 0.6640625 0 0 Z " fill="#6E9AE2" transform="translate(298,261)"/>
<path d="M0 0 C0.66 0 1.32 0 2 0 C1.82374165 2.37948772 1.30280227 3.70225849 -0.40234375 5.37890625 C-1.90649092 6.62115486 -3.45129851 7.81376056 -5 9 C-4.42415568 6.61435923 -3.77772405 4.33317216 -3 2 C-2.34 2 -1.68 2 -1 2 C-0.67 1.34 -0.34 0.68 0 0 Z " fill="#6D97DC" transform="translate(219,239)"/>
<path d="M0 0 C1.32 0.33 2.64 0.66 4 1 C4 1.66 4 2.32 4 3 C4.66 3.33 5.32 3.66 6 4 C4.68 5.65 3.36 7.3 2 9 C1.22678118 6.01758453 0.58803797 3.02419525 0 0 Z " fill="#4A82E9" transform="translate(98,378)"/>
<path d="M0 0 C0.66 0.33 1.32 0.66 2 1 C2.625 3.0625 2.625 3.0625 3 5 C1.35 6.32 -0.3 7.64 -2 9 C-1.41196203 5.97580475 -0.77321882 2.98241547 0 0 Z " fill="#6A97E4" transform="translate(191,266)"/>
<path d="M0 0 C0.99 0.33 1.98 0.66 3 1 C3 1.66 3 2.32 3 3 C3.598125 3.268125 4.19625 3.53625 4.8125 3.8125 C6.97224808 4.98493467 8.35790256 6.19369282 10 8 C7.21788056 7.62403791 5.4120716 7.32681541 3.1875 5.5625 C2 4 2 4 2 2 C1.34 2 0.68 2 0 2 C0 1.34 0 0.68 0 0 Z " fill="#6B95DF" transform="translate(376,91)"/>
<path d="M0 0 C1.32 0.33 2.64 0.66 4 1 C0.375 4 0.375 4 -3 4 C-3 4.66 -3 5.32 -3 6 C-3.99 6 -4.98 6 -6 6 C-6 5.01 -6 4.02 -6 3 C-4.35 3 -2.7 3 -1 3 C-0.67 2.01 -0.34 1.02 0 0 Z " fill="#7CA5E3" transform="translate(358,418)"/>
<path d="M0 0 C0.33 0.66 0.66 1.32 1 2 C0.34 2 -0.32 2 -1 2 C-1.4021875 3.1446875 -1.4021875 3.1446875 -1.8125 4.3125 C-3 7 -3 7 -6 10 C-5.34 7.03 -4.68 4.06 -4 1 C-2.68 0.67 -1.36 0.34 0 0 Z " fill="#719BE3" transform="translate(419,360)"/>
<path d="M0 0 C2.3125 0.125 2.3125 0.125 5 1 C6.875 3.875 6.875 3.875 8 7 C7.67 7.99 7.34 8.98 7 10 C6.401875 8.906875 5.80375 7.81375 5.1875 6.6875 C3.70955303 4.08925871 2.30177067 1.95650507 0 0 Z " fill="#84A9E0" transform="translate(316,289)"/>
<path d="M0 0 C0.66 0 1.32 0 2 0 C1.91621094 0.68707031 1.83242188 1.37414062 1.74609375 2.08203125 C1.64425781 2.98308594 1.54242188 3.88414062 1.4375 4.8125 C1.33308594 5.70582031 1.22867187 6.59914062 1.12109375 7.51953125 C0.84341291 10.13375572 0.84341291 10.13375572 2 13 C1.01 12.67 0.02 12.34 -1 12 C-1.02698189 10.37509046 -1.04638757 8.75005367 -1.0625 7.125 C-1.07410156 6.22007812 -1.08570313 5.31515625 -1.09765625 4.3828125 C-1 2 -1 2 0 0 Z " fill="#5782D8" transform="translate(338,185)"/>
<path d="M0 0 C2.95929119 2.75520215 5.03681826 5.46627288 7 9 C6.01 9 5.02 9 4 9 C4 8.34 4 7.68 4 7 C3.01 7 2.02 7 1 7 C0.67 4.69 0.34 2.38 0 0 Z " fill="#6894DE" transform="translate(411,126)"/>
<path d="M0 0 C2.5 2.3125 2.5 2.3125 5 5 C5 5.99 5 6.98 5 8 C2.56070254 6.07423885 0.19909405 4.19909405 -2 2 C-1.34 2 -0.68 2 0 2 C0 1.34 0 0.68 0 0 Z " fill="#6490E4" transform="translate(405,119)"/>
<path d="M0 0 C0.33 0.66 0.66 1.32 1 2 C3.52733235 2.65555119 3.52733235 2.65555119 6 3 C5.34 4.32 4.68 5.64 4 7 C2.02 5.35 0.04 3.7 -2 2 C-1.34 1.34 -0.68 0.68 0 0 Z " fill="#6A92E6" transform="translate(126,407)"/>
<path d="M0 0 C0 0.66 0 1.32 0 2 C-1.11375 2.474375 -2.2275 2.94875 -3.375 3.4375 C-5.26710994 4.25306463 -7.15712709 5.07856355 -9 6 C-9 5.01 -9 4.02 -9 3 C-8.34 3 -7.68 3 -7 3 C-7 2.34 -7 1.68 -7 1 C-4 0 -4 0 0 0 Z " fill="#7197DE" transform="translate(305,286)"/>
<path d="M0 0 C1.32 1.65 2.64 3.3 4 5 C1.03 5.66 -1.94 6.32 -5 7 C-5 6.34 -5 5.68 -5 5 C-4.01 4.67 -3.02 4.34 -2 4 C-0.79117904 1.99983534 -0.79117904 1.99983534 0 0 Z " fill="#5F8CE1" transform="translate(303,226)"/>
<path d="M0 0 C2.97 0.33 5.94 0.66 9 1 C9 1.33 9 1.66 9 2 C5.7 2.33 2.4 2.66 -1 3 C-0.67 2.01 -0.34 1.02 0 0 Z " fill="#7198E5" transform="translate(277,447)"/>
<path d="M0 0 C0.33 0.66 0.66 1.32 1 2 C0.34 2 -0.32 2 -1 2 C-1 3.65 -1 5.3 -1 7 C-1.33 6.34 -1.66 5.68 -2 5 C-3.65 5.33 -5.3 5.66 -7 6 C-7 5.34 -7 4.68 -7 4 C-5.35 3.67 -3.7 3.34 -2 3 C-2 2.34 -2 1.68 -2 1 C-1.34 0.67 -0.68 0.34 0 0 Z " fill="#5885DB" transform="translate(319,316)"/>
<path d="M0 0 C0.33 0.99 0.66 1.98 1 3 C-0.8125 5.6875 -0.8125 5.6875 -3 8 C-3.66 8 -4.32 8 -5 8 C-4.45773019 4.20411134 -2.79872437 2.52788007 0 0 Z " fill="#7596E5" transform="translate(176,252)"/>
<path d="M0 0 C0.8125 1.6875 0.8125 1.6875 1 4 C-1.4375 6.75 -1.4375 6.75 -4 9 C-4 5.00095031 -2.27413033 3.19799578 0 0 Z " fill="#7DA9E5" transform="translate(83,133)"/>
<path d="M0 0 C0.66 0.33 1.32 0.66 2 1 C-1.32307692 6.78461538 -1.32307692 6.78461538 -4.75 7.875 C-5.4925 7.91625 -6.235 7.9575 -7 8 C-6.02133662 6.85373678 -5.04205413 5.70800212 -4.0625 4.5625 C-3.51722656 3.92441406 -2.97195312 3.28632812 -2.41015625 2.62890625 C-1.63204305 1.73008851 -0.84063472 0.84063472 0 0 Z " fill="#80A3E6" transform="translate(115,97)"/>
<path d="M0 0 C1.65 0.99 3.3 1.98 5 3 C2 5 2 5 -0.6875 4.625 C-1.450625 4.41875 -2.21375 4.2125 -3 4 C-2.01 2.68 -1.02 1.36 0 0 Z " fill="#618FEB" transform="translate(371,87)"/>
<path d="M0 0 C0.33 0.99 0.66 1.98 1 3 C1.66 3 2.32 3 3 3 C4.7143618 4.95927063 6.38405168 6.95880212 8 9 C6.35 8.67 4.7 8.34 3 8 C2.67 6.68 2.34 5.36 2 4 C1.34 4 0.68 4 0 4 C0 2.68 0 1.36 0 0 Z " fill="#7192DB" transform="translate(106,316)"/>
<path d="M0 0 C2.97 0.495 2.97 0.495 6 1 C6.33 2.32 6.66 3.64 7 5 C6.01 5.495 6.01 5.495 5 6 C4.67 5.34 4.34 4.68 4 4 C1.98330173 2.86649466 1.98330173 2.86649466 0 2 C0 1.34 0 0.68 0 0 Z " fill="#5F8BDE" transform="translate(392,294)"/>
<path d="M0 0 C0.33 0.99 0.66 1.98 1 3 C0.34 3 -0.32 3 -1 3 C-1 3.66 -1 4.32 -1 5 C-0.34 5.33 0.32 5.66 1 6 C-0.65 6.66 -2.3 7.32 -4 8 C-4.33 7.01 -4.66 6.02 -5 5 C-4.01 4.67 -3.02 4.34 -2 4 C-2 3.34 -2 2.68 -2 2 C-1.34 2 -0.68 2 0 2 C0 1.34 0 0.68 0 0 Z " fill="#6A93E5" transform="translate(194,233)"/>
<path d="M0 0 C0.99 0.33 1.98 0.66 3 1 C2.67 5.29 2.34 9.58 2 14 C1.67 14 1.34 14 1 14 C0.67 9.38 0.34 4.76 0 0 Z " fill="#5E87DD" transform="translate(267,174)"/>
<path d="M0 0 C2.97 0.495 2.97 0.495 6 1 C3.14693203 3.32472205 0.45925163 4.7508258 -3 6 C-3 5.34 -3 4.68 -3 4 C-2.34 4 -1.68 4 -1 4 C-0.67 2.68 -0.34 1.36 0 0 Z " fill="#5690E7" transform="translate(308,56)"/>
<path d="M0 0 C-0.33 0.99 -0.66 1.98 -1 3 C-3.875 3.625 -3.875 3.625 -7 4 C-7.66 3.34 -8.32 2.68 -9 2 C-3.375 0 -3.375 0 0 0 Z " fill="#7796E2" transform="translate(261,324)"/>
<path d="M0 0 C2.12508244 3.18762365 2.5020163 5.26512223 3 9 C2.01 9 1.02 9 0 9 C0 6.03 0 3.06 0 0 Z " fill="#6596E2" transform="translate(438,173)"/>
<path d="M0 0 C-2.91403262 1.94268841 -5.85808576 3.46395304 -9 5 C-8.6875 3.0625 -8.6875 3.0625 -8 1 C-5.07175348 0.02391783 -3.04386724 -0.08226668 0 0 Z " fill="#7A9BE5" transform="translate(119,163)"/>
<path d="M0 0 C4.08718695 -0.24042276 7.17679443 0.57741188 11 2 C11 2.33 11 2.66 11 3 C3.49230769 3.36923077 3.49230769 3.36923077 1 1.5 C0.67 1.005 0.34 0.51 0 0 Z " fill="#4379DE" transform="translate(111,160)"/>
<path d="M0 0 C2 3 2 3 1.625 5.1875 C1.41875 5.785625 1.2125 6.38375 1 7 C0.01 6.67 -0.98 6.34 -2 6 C-1.49396008 3.83125748 -1.00016187 2.00032373 0 0 Z " fill="#6494E6" transform="translate(74,147)"/>
<path d="M0 0 C0.66 0 1.32 0 2 0 C2 1.32 2 2.64 2 4 C0.68 4.33 -0.64 4.66 -2 5 C-2 5.66 -2 6.32 -2 7 C-2.66 6.67 -3.32 6.34 -4 6 C-2.7260411 3.96166576 -1.38938077 1.96147874 0 0 Z " fill="#759ADE" transform="translate(90,123)"/>
<path d="M0 0 C0.33 0.66 0.66 1.32 1 2 C-1.25 3.625 -1.25 3.625 -4 5 C-6.3125 4.1875 -6.3125 4.1875 -8 3 C-5.36 2.01 -2.72 1.02 0 0 Z " fill="#678ADD" transform="translate(178,60)"/>
</svg>
